# xmcd
#
# Track frame offsets:
#	150
#	18809
#	34373
#	51356
#	68850
#	90279
#	108636
#	126687
#	146433
#	164539
#	183833
#	200147
#
# Disc length: 3094 seconds
#
# Revision: 1
# Processed by: cddbd v1.5.2PL0 Copyright (c) Steve Scherf et al.
# Submitted via: audiograbber 1.83.01
#
DISCID=af0c140c
DTITLE=Bill Deasy - The Miles
DYEAR=2007
DGENRE=Country Rock
TTITLE0=The Miles
TTITLE1=Some Catastrophe
TTITLE2=Trouble From The Start
TTITLE3=All I Want
TTITLE4=Just Believe
TTITLE5=Judgement Day
TTITLE6=Blue Highways
TTITLE7=Getting Closer
TTITLE8=We Can
TTITLE9=Beautiful Stranger
TTITLE10=Wish There Was A Way
TTITLE11=Standing By The River
EXTD=
EXTT0=
EXTT1=
EXTT2=
EXTT3=
EXTT4=
EXTT5=
EXTT6=
EXTT7=
EXTT8=
EXTT9=
EXTT10=
EXTT11=
PLAYORDER=
